<svg id="Layer_1" data-name="Layer 1" xmlns="http://www.w3.org/2000/svg" viewBox="0 0 979.49 632.19"><defs><style>.cls-1{fill:#70cbff;}.cls-2{fill:#091440;}</style></defs><title>lightningNetwork</title><polyline id="_Path_" data-name="&lt;Path&gt;" class="cls-1" points="446.33 12.21 272.68 359.51 446.33 359.51 359.51 619.98 706.8 272.68 529.48 272.68 706.8 12.21"/><g id="_Group_" data-name="&lt;Group&gt;"><g id="_Group_2" data-name="&lt;Group&gt;"><circle id="_Path_2" data-name="&lt;Path&gt;" class="cls-2" cx="12.21" cy="12.21" r="12.21"/><circle id="_Path_3" data-name="&lt;Path&gt;" class="cls-2" cx="12.21" cy="99.03" r="12.21"/><circle id="_Path_4" data-name="&lt;Path&gt;" class="cls-2" cx="12.21" cy="185.86" r="12.21"/><circle id="_Path_5" data-name="&lt;Path&gt;" class="cls-2" cx="12.21" cy="272.68" r="12.21"/><circle id="_Path_6" data-name="&lt;Path&gt;" class="cls-2" cx="12.21" cy="359.51" r="12.21"/><circle id="_Path_7" data-name="&lt;Path&gt;" class="cls-2" cx="12.21" cy="446.33" r="12.21"/><circle id="_Path_8" data-name="&lt;Path&gt;" class="cls-2" cx="12.21" cy="533.16" r="12.21"/><circle id="_Path_9" data-name="&lt;Path&gt;" class="cls-2" cx="12.21" cy="619.98" r="12.21"/></g><g id="_Group_3" data-name="&lt;Group&gt;"><circle id="_Path_10" data-name="&lt;Path&gt;" class="cls-2" cx="99.03" cy="12.21" r="12.21"/><circle id="_Path_11" data-name="&lt;Path&gt;" class="cls-2" cx="99.03" cy="99.03" r="12.21"/><circle id="_Path_12" data-name="&lt;Path&gt;" class="cls-2" cx="99.03" cy="185.86" r="12.21"/><circle id="_Path_13" data-name="&lt;Path&gt;" class="cls-2" cx="99.03" cy="272.68" r="12.21"/><circle id="_Path_14" data-name="&lt;Path&gt;" class="cls-2" cx="99.03" cy="359.51" r="12.21"/><circle id="_Path_15" data-name="&lt;Path&gt;" class="cls-2" cx="99.03" cy="446.33" r="12.21"/><circle id="_Path_16" data-name="&lt;Path&gt;" class="cls-2" cx="99.03" cy="533.16" r="12.21"/><circle id="_Path_17" data-name="&lt;Path&gt;" class="cls-2" cx="99.03" cy="619.98" r="12.21"/></g><g id="_Group_4" data-name="&lt;Group&gt;"><circle id="_Path_18" data-name="&lt;Path&gt;" class="cls-2" cx="185.86" cy="12.21" r="12.21"/><circle id="_Path_19" data-name="&lt;Path&gt;" class="cls-2" cx="185.86" cy="99.03" r="12.21"/><circle id="_Path_20" data-name="&lt;Path&gt;" class="cls-2" cx="185.86" cy="185.86" r="12.21"/><circle id="_Path_21" data-name="&lt;Path&gt;" class="cls-2" cx="185.86" cy="272.68" r="12.21"/><circle id="_Path_22" data-name="&lt;Path&gt;" class="cls-2" cx="185.86" cy="359.51" r="12.21"/><circle id="_Path_23" data-name="&lt;Path&gt;" class="cls-2" cx="185.86" cy="446.33" r="12.21"/><circle id="_Path_24" data-name="&lt;Path&gt;" class="cls-2" cx="185.86" cy="533.16" r="12.21"/><circle id="_Path_25" data-name="&lt;Path&gt;" class="cls-2" cx="185.86" cy="619.98" r="12.21"/></g><g id="_Group_5" data-name="&lt;Group&gt;"><circle id="_Path_26" data-name="&lt;Path&gt;" class="cls-2" cx="272.68" cy="12.21" r="12.21"/><circle id="_Path_27" data-name="&lt;Path&gt;" class="cls-2" cx="272.68" cy="99.03" r="12.21"/><circle id="_Path_28" data-name="&lt;Path&gt;" class="cls-2" cx="272.68" cy="185.86" r="12.21"/><circle id="_Path_29" data-name="&lt;Path&gt;" class="cls-2" cx="272.68" cy="272.68" r="12.21"/><circle id="_Path_30" data-name="&lt;Path&gt;" class="cls-2" cx="272.68" cy="359.51" r="12.21"/><circle id="_Path_31" data-name="&lt;Path&gt;" class="cls-2" cx="272.68" cy="446.33" r="12.21"/><circle id="_Path_32" data-name="&lt;Path&gt;" class="cls-2" cx="272.68" cy="533.16" r="12.21"/><circle id="_Path_33" data-name="&lt;Path&gt;" class="cls-2" cx="272.68" cy="619.98" r="12.21"/></g><g id="_Group_6" data-name="&lt;Group&gt;"><circle id="_Path_34" data-name="&lt;Path&gt;" class="cls-2" cx="359.51" cy="12.21" r="12.21"/><circle id="_Path_35" data-name="&lt;Path&gt;" class="cls-2" cx="359.51" cy="99.03" r="12.21"/><circle id="_Path_36" data-name="&lt;Path&gt;" class="cls-2" cx="359.51" cy="185.86" r="12.21"/><circle id="_Path_37" data-name="&lt;Path&gt;" class="cls-2" cx="359.51" cy="272.68" r="12.21"/><circle id="_Path_38" data-name="&lt;Path&gt;" class="cls-2" cx="359.51" cy="359.51" r="12.21"/><circle id="_Path_39" data-name="&lt;Path&gt;" class="cls-2" cx="359.51" cy="446.33" r="12.21"/><circle id="_Path_40" data-name="&lt;Path&gt;" class="cls-2" cx="359.51" cy="533.16" r="12.21"/><circle id="_Path_41" data-name="&lt;Path&gt;" class="cls-2" cx="359.51" cy="619.98" r="12.21"/></g><g id="_Group_7" data-name="&lt;Group&gt;"><circle id="_Path_42" data-name="&lt;Path&gt;" class="cls-2" cx="446.33" cy="12.21" r="12.21"/><circle id="_Path_43" data-name="&lt;Path&gt;" class="cls-2" cx="446.33" cy="99.03" r="12.21"/><circle id="_Path_44" data-name="&lt;Path&gt;" class="cls-2" cx="446.33" cy="185.86" r="12.21"/><circle id="_Path_45" data-name="&lt;Path&gt;" class="cls-2" cx="446.33" cy="272.68" r="12.21"/><circle id="_Path_46" data-name="&lt;Path&gt;" class="cls-2" cx="446.33" cy="359.51" r="12.21"/><circle id="_Path_47" data-name="&lt;Path&gt;" class="cls-2" cx="446.33" cy="446.33" r="12.21"/><circle id="_Path_48" data-name="&lt;Path&gt;" class="cls-2" cx="446.33" cy="533.16" r="12.21"/><circle id="_Path_49" data-name="&lt;Path&gt;" class="cls-2" cx="446.33" cy="619.98" r="12.21"/></g><g id="_Group_8" data-name="&lt;Group&gt;"><circle id="_Path_50" data-name="&lt;Path&gt;" class="cls-2" cx="533.16" cy="12.21" r="12.21"/><circle id="_Path_51" data-name="&lt;Path&gt;" class="cls-2" cx="533.16" cy="99.03" r="12.21"/><circle id="_Path_52" data-name="&lt;Path&gt;" class="cls-2" cx="533.16" cy="185.86" r="12.21"/><circle id="_Path_53" data-name="&lt;Path&gt;" class="cls-2" cx="533.16" cy="272.68" r="12.21"/><circle id="_Path_54" data-name="&lt;Path&gt;" class="cls-2" cx="533.16" cy="359.51" r="12.21"/><circle id="_Path_55" data-name="&lt;Path&gt;" class="cls-2" cx="533.16" cy="446.33" r="12.21"/><circle id="_Path_56" data-name="&lt;Path&gt;" class="cls-2" cx="533.16" cy="533.16" r="12.21"/><circle id="_Path_57" data-name="&lt;Path&gt;" class="cls-2" cx="533.16" cy="619.98" r="12.21"/></g><g id="_Group_9" data-name="&lt;Group&gt;"><circle id="_Path_58" data-name="&lt;Path&gt;" class="cls-2" cx="619.98" cy="12.21" r="12.21"/><circle id="_Path_59" data-name="&lt;Path&gt;" class="cls-2" cx="619.98" cy="99.03" r="12.21"/><circle id="_Path_60" data-name="&lt;Path&gt;" class="cls-2" cx="619.98" cy="185.86" r="12.21"/><circle id="_Path_61" data-name="&lt;Path&gt;" class="cls-2" cx="619.98" cy="272.68" r="12.21"/><circle id="_Path_62" data-name="&lt;Path&gt;" class="cls-2" cx="619.98" cy="359.51" r="12.21"/><circle id="_Path_63" data-name="&lt;Path&gt;" class="cls-2" cx="619.98" cy="446.33" r="12.21"/><circle id="_Path_64" data-name="&lt;Path&gt;" class="cls-2" cx="619.98" cy="533.16" r="12.21"/><circle id="_Path_65" data-name="&lt;Path&gt;" class="cls-2" cx="619.98" cy="619.98" r="12.21"/></g><g id="_Group_10" data-name="&lt;Group&gt;"><circle id="_Path_66" data-name="&lt;Path&gt;" class="cls-2" cx="706.81" cy="12.21" r="12.21"/><circle id="_Path_67" data-name="&lt;Path&gt;" class="cls-2" cx="706.81" cy="99.03" r="12.21"/><circle id="_Path_68" data-name="&lt;Path&gt;" class="cls-2" cx="706.81" cy="185.86" r="12.21"/><circle id="_Path_69" data-name="&lt;Path&gt;" class="cls-2" cx="706.81" cy="272.68" r="12.21"/><circle id="_Path_70" data-name="&lt;Path&gt;" class="cls-2" cx="706.81" cy="359.51" r="12.21"/><circle id="_Path_71" data-name="&lt;Path&gt;" class="cls-2" cx="706.81" cy="446.33" r="12.21"/><circle id="_Path_72" data-name="&lt;Path&gt;" class="cls-2" cx="706.81" cy="533.16" r="12.21"/><circle id="_Path_73" data-name="&lt;Path&gt;" class="cls-2" cx="706.81" cy="619.98" r="12.21"/></g><g id="_Group_11" data-name="&lt;Group&gt;"><circle id="_Path_74" data-name="&lt;Path&gt;" class="cls-2" cx="793.63" cy="12.21" r="12.21"/><circle id="_Path_75" data-name="&lt;Path&gt;" class="cls-2" cx="793.63" cy="99.03" r="12.21"/><circle id="_Path_76" data-name="&lt;Path&gt;" class="cls-2" cx="793.63" cy="185.86" r="12.21"/><circle id="_Path_77" data-name="&lt;Path&gt;" class="cls-2" cx="793.63" cy="272.68" r="12.21"/><circle id="_Path_78" data-name="&lt;Path&gt;" class="cls-2" cx="793.63" cy="359.51" r="12.21"/><circle id="_Path_79" data-name="&lt;Path&gt;" class="cls-2" cx="793.63" cy="446.33" r="12.21"/><circle id="_Path_80" data-name="&lt;Path&gt;" class="cls-2" cx="793.63" cy="533.16" r="12.21"/><circle id="_Path_81" data-name="&lt;Path&gt;" class="cls-2" cx="793.63" cy="619.98" r="12.21"/></g><g id="_Group_12" data-name="&lt;Group&gt;"><circle id="_Path_82" data-name="&lt;Path&gt;" class="cls-2" cx="880.45" cy="12.21" r="12.21"/><circle id="_Path_83" data-name="&lt;Path&gt;" class="cls-2" cx="880.45" cy="99.03" r="12.21"/><circle id="_Path_84" data-name="&lt;Path&gt;" class="cls-2" cx="880.45" cy="185.86" r="12.21"/><circle id="_Path_85" data-name="&lt;Path&gt;" class="cls-2" cx="880.45" cy="272.68" r="12.21"/><circle id="_Path_86" data-name="&lt;Path&gt;" class="cls-2" cx="880.45" cy="359.51" r="12.21"/><circle id="_Path_87" data-name="&lt;Path&gt;" class="cls-2" cx="880.45" cy="446.33" r="12.21"/><circle id="_Path_88" data-name="&lt;Path&gt;" class="cls-2" cx="880.45" cy="533.16" r="12.21"/><circle id="_Path_89" data-name="&lt;Path&gt;" class="cls-2" cx="880.45" cy="619.98" r="12.21"/></g><g id="_Group_13" data-name="&lt;Group&gt;"><circle id="_Path_90" data-name="&lt;Path&gt;" class="cls-2" cx="967.28" cy="12.21" r="12.21"/><circle id="_Path_91" data-name="&lt;Path&gt;" class="cls-2" cx="967.28" cy="99.03" r="12.21"/><circle id="_Path_92" data-name="&lt;Path&gt;" class="cls-2" cx="967.28" cy="185.86" r="12.21"/><circle id="_Path_93" data-name="&lt;Path&gt;" class="cls-2" cx="967.28" cy="272.68" r="12.21"/><circle id="_Path_94" data-name="&lt;Path&gt;" class="cls-2" cx="967.28" cy="359.51" r="12.21"/><circle id="_Path_95" data-name="&lt;Path&gt;" class="cls-2" cx="967.28" cy="446.33" r="12.21"/><circle id="_Path_96" data-name="&lt;Path&gt;" class="cls-2" cx="967.28" cy="533.16" r="12.21"/><circle id="_Path_97" data-name="&lt;Path&gt;" class="cls-2" cx="967.28" cy="619.98" r="12.21"/></g></g></svg>